<svg xmlns="http://www.w3.org/2000/svg" xmlns:xlink="http://www.w3.org/1999/xlink" width="100" zoomAndPan="magnify" viewBox="0 0 75 74.999997" height="100" preserveAspectRatio="xMidYMid meet" version="1.0"><defs><clipPath id="18322844d2"><path d="M 22.59375 22.5 L 30 22.5 L 30 30 L 22.59375 30 Z M 22.59375 22.5 " clip-rule="nonzero"/></clipPath><clipPath id="fb6a353dec"><path d="M 32 22.5 L 52.59375 22.5 L 52.59375 30 L 32 30 Z M 32 22.5 " clip-rule="nonzero"/></clipPath><clipPath id="a37066070e"><path d="M 22.59375 34 L 30 34 L 30 41 L 22.59375 41 Z M 22.59375 34 " clip-rule="nonzero"/></clipPath><clipPath id="7691065c71"><path d="M 32 34 L 52.59375 34 L 52.59375 41 L 32 41 Z M 32 34 " clip-rule="nonzero"/></clipPath><clipPath id="26fadfc957"><path d="M 22.59375 45 L 30 45 L 30 52.5 L 22.59375 52.5 Z M 22.59375 45 " clip-rule="nonzero"/></clipPath><clipPath id="f955ab8bac"><path d="M 32 45 L 52.59375 45 L 52.59375 52.5 L 32 52.5 Z M 32 45 " clip-rule="nonzero"/></clipPath></defs><g clip-path="url(#18322844d2)"><path fill="#c4ef17" d="M 22.59375 22.539062 L 22.59375 29.15625 L 29.207031 29.15625 L 29.207031 22.539062 L 22.59375 22.539062 " fill-opacity="1" fill-rule="nonzero"/></g><g clip-path="url(#fb6a353dec)"><path fill="#c4ef17" d="M 32.164062 22.539062 L 32.164062 29.15625 L 52.40625 29.15625 L 52.40625 22.539062 L 32.164062 22.539062 " fill-opacity="1" fill-rule="nonzero"/></g><g clip-path="url(#a37066070e)"><path fill="#c4ef17" d="M 22.59375 34.183594 L 22.59375 40.796875 L 29.207031 40.796875 L 29.207031 34.183594 L 22.59375 34.183594 " fill-opacity="1" fill-rule="nonzero"/></g><g clip-path="url(#7691065c71)"><path fill="#c4ef17" d="M 32.164062 34.183594 L 32.164062 40.796875 L 52.40625 40.796875 L 52.40625 34.183594 L 32.164062 34.183594 " fill-opacity="1" fill-rule="nonzero"/></g><g clip-path="url(#26fadfc957)"><path fill="#c4ef17" d="M 22.59375 45.828125 L 22.59375 52.441406 L 29.207031 52.441406 L 29.207031 45.828125 L 22.59375 45.828125 " fill-opacity="1" fill-rule="nonzero"/></g><g clip-path="url(#f955ab8bac)"><path fill="#c4ef17" d="M 32.164062 45.828125 L 32.164062 52.441406 L 52.40625 52.441406 L 52.40625 45.828125 L 32.164062 45.828125 " fill-opacity="1" fill-rule="nonzero"/></g></svg>