<svg xmlns="http://www.w3.org/2000/svg" xmlns:xlink="http://www.w3.org/1999/xlink" viewBox="0,0,256,256" width="96px" height="96px"><g fill="#c4ef17" fill-rule="nonzero" stroke="none" stroke-width="1" stroke-linecap="butt" stroke-linejoin="miter" stroke-miterlimit="10" stroke-dasharray="" stroke-dashoffset="0" font-family="none" font-weight="none" font-size="none" text-anchor="none" style="mix-blend-mode: normal"><g transform="scale(5.33333,5.33333)"><path d="M29,17.5c-1.324,1.928 -4.235,5.5 -4.235,5.5c0,0 -3.309,-3.186 -4.765,-5.5c0,0 1.588,-2.597 4.73,-5.5c2.152,2.26 4.27,5.5 4.27,5.5zM36.375,23c0,0 -0.375,-0.5 -0.375,-1.75c0,-2.875 5,-4.25 5,-4.25c-1,-2 -4,-6.5 -4,-6.5l0.5,-4l-3.5,1.5c-2.75,-3.375 -8.25,-7.75 -9,-8c0,0 -2.625,1.625 -7.625,5.625c0,0 -2.5,-1.625 -3.25,-1.625c-0.469,0 -0.75,0.125 -0.874,0.863c-0.14,0.833 -0.251,1.762 -0.387,2.721c-0.118,0.835 -0.249,1.698 -0.796,2.378c-2.443,3.038 -5.068,5.663 -5.068,5.663c0,0 5,1.75 5,6.375c0,0.625 -0.25,1 -0.25,1c-2.625,0 -6.75,-3 -6.75,-3c0,1 3.625,6.25 6,9c0,0 1.25,-1 3,-1c2,0 5,1.375 5,6.625c0,2.375 -0.625,3.375 -2.25,3.375c-0.75,0 -1.75,-0.625 -1.75,-0.625l6,10.625c0,0 1,-3.25 1,-8.625c0,-5.875 -1.046,-8.728 -2.75,-11.875c-1.625,-3 -3.25,-5 -3.25,-9.5c0,-3.625 3.625,-8 9.25,-8c4.25,0 6.75,4.945 6.75,8c0,4 -1.195,7.186 -3.033,10.25c-3,5 -2.967,5.75 -2.967,5.75c0,0 0.638,5 1,11c3.206,-3.667 3.75,-4.625 6,-10c0,0 -1.598,0.879 -1.75,0.925c-0.158,0.049 -0.326,0.075 -0.5,0.075c-0.966,0 -1.75,-0.784 -1.75,-1.75c0,-0.329 0.091,-0.636 0.25,-0.899c0.139,-0.23 0,0 1.75,-3.101c0.632,-1.121 1.25,-2.25 2.875,-2.25c2.375,0 4.125,2 4.125,2c3.75,-5.125 5,-9 5,-9c-3.5,2.125 -6.625,2 -6.625,2z"></path></g></g></svg>