<svg xmlns="http://www.w3.org/2000/svg" xmlns:xlink="http://www.w3.org/1999/xlink" width="100" zoomAndPan="magnify" viewBox="0 0 75 74.999997" height="100" preserveAspectRatio="xMidYMid meet" version="1.0"><defs><clipPath id="db20373a3d"><path d="M 19.578125 16.238281 L 55.578125 16.238281 L 55.578125 45 L 19.578125 45 Z M 19.578125 16.238281 " clip-rule="nonzero"/></clipPath><clipPath id="1c5f50f0e7"><path d="M 29 45 L 38 45 L 38 52.988281 L 29 52.988281 Z M 29 45 " clip-rule="nonzero"/></clipPath><clipPath id="135734d34f"><path d="M 43 45 L 51 45 L 51 52.988281 L 43 52.988281 Z M 43 45 " clip-rule="nonzero"/></clipPath></defs><g clip-path="url(#db20373a3d)"><path fill="#c4ef17" d="M 53.339844 41.472656 L 55.054688 26.496094 C 55.175781 25.441406 54.839844 24.40625 54.109375 23.589844 C 53.300781 22.683594 52.109375 22.164062 50.835938 22.164062 L 27.960938 22.164062 L 27.261719 17.292969 C 27.171875 16.6875 26.652344 16.238281 26.042969 16.238281 L 21.027344 16.238281 C 20.347656 16.238281 19.796875 16.789062 19.796875 17.46875 C 19.796875 18.148438 20.347656 18.699219 21.027344 18.699219 L 24.976562 18.699219 L 27.722656 41.472656 C 27.953125 43.46875 29.761719 44.976562 31.9375 44.976562 L 49.125 44.976562 C 51.300781 44.976562 53.109375 43.46875 53.339844 41.472656 Z M 49.125 42.515625 L 31.9375 42.515625 C 31.03125 42.515625 30.253906 41.9375 30.167969 41.191406 L 28.273438 24.625 L 50.835938 24.625 C 51.410156 24.625 51.929688 24.84375 52.273438 25.226562 C 52.453125 25.429688 52.660156 25.765625 52.609375 26.21875 L 50.894531 41.191406 C 50.808594 41.9375 50.03125 42.515625 49.125 42.515625 Z M 49.125 42.515625 " fill-opacity="1" fill-rule="nonzero"/></g><path fill="#c4ef17" d="M 46.578125 32.339844 L 41.601562 32.339844 L 41.601562 27.363281 C 41.601562 26.683594 41.050781 26.132812 40.371094 26.132812 C 39.691406 26.132812 39.140625 26.683594 39.140625 27.363281 L 39.140625 32.339844 L 34.164062 32.339844 C 33.484375 32.339844 32.933594 32.890625 32.933594 33.570312 C 32.933594 34.25 33.480469 34.800781 34.164062 34.800781 L 39.140625 34.800781 L 39.140625 39.777344 C 39.140625 40.457031 39.691406 41.007812 40.371094 41.007812 C 41.050781 41.007812 41.601562 40.457031 41.601562 39.777344 L 41.601562 34.800781 L 46.578125 34.800781 C 47.257812 34.800781 47.808594 34.25 47.808594 33.570312 C 47.808594 32.890625 47.257812 32.339844 46.578125 32.339844 Z M 46.578125 32.339844 " fill-opacity="1" fill-rule="nonzero"/><g clip-path="url(#1c5f50f0e7)"><path fill="#c4ef17" d="M 37.101562 49.488281 C 37.101562 47.46875 35.460938 45.828125 33.441406 45.828125 C 31.421875 45.828125 29.777344 47.46875 29.777344 49.488281 C 29.777344 51.507812 31.421875 53.152344 33.441406 53.152344 C 35.460938 53.152344 37.101562 51.507812 37.101562 49.488281 Z M 32.238281 49.488281 C 32.238281 48.828125 32.777344 48.289062 33.441406 48.289062 C 34.101562 48.289062 34.640625 48.828125 34.640625 49.488281 C 34.640625 50.152344 34.101562 50.691406 33.441406 50.691406 C 32.777344 50.691406 32.238281 50.152344 32.238281 49.488281 Z M 32.238281 49.488281 " fill-opacity="1" fill-rule="nonzero"/></g><g clip-path="url(#135734d34f)"><path fill="#c4ef17" d="M 47.296875 45.828125 C 45.28125 45.828125 43.636719 47.46875 43.636719 49.488281 C 43.636719 51.507812 45.28125 53.152344 47.296875 53.152344 C 49.316406 53.152344 50.960938 51.507812 50.960938 49.488281 C 50.960938 47.46875 49.316406 45.828125 47.296875 45.828125 Z M 47.296875 50.691406 C 46.636719 50.691406 46.097656 50.152344 46.097656 49.488281 C 46.097656 48.828125 46.636719 48.289062 47.296875 48.289062 C 47.960938 48.289062 48.5 48.828125 48.5 49.488281 C 48.5 50.152344 47.960938 50.691406 47.296875 50.691406 Z M 47.296875 50.691406 " fill-opacity="1" fill-rule="nonzero"/></g></svg>